<svg width="100%" height="100%" viewBox="0 0 100 100" version="1.1" xmlns="http://www.w3.org/2000/svg" xmlns:xlink="http://www.w3.org/1999/xlink" xml:space="preserve" style="fill-rule:evenodd;clip-rule:evenodd;stroke-linejoin:round;stroke-miterlimit:2;">
    <g transform="matrix(0.91979,0.00217153,-0.00217153,0.91979,3.72769,5.04119)">
        <g transform="matrix(1.64841,0,0,1.64841,-124.289,-94.055)">
            <g transform="matrix(0.748209,3.12109e-19,-3.12109e-19,0.748209,33.8023,8.52215)">
                <g transform="matrix(0.635906,0,0,0.635906,26.8278,67.4873)">
                    <path d="M162.12,20.367C164.385,16.404 164.589,11.866 162.536,7.513C161.085,4.647 157.637,1.92 156.221,2.009C154.806,2.097 155.929,2.424 156.035,2.531C159.858,4.442 162.2,9.582 161.988,13.829C162.129,18.253 160.85,20.235 159.314,23.769C158.893,25.273 161.125,22.425 162.12,20.367Z" style="fill-rule:nonzero;"/>
                </g>
                <g transform="matrix(0.855385,0,0,0.855385,-4.49301,63.0169)">
                    <path d="M162.12,20.367C164.385,16.404 164.589,11.866 162.536,7.513C161.085,4.647 157.637,1.92 156.221,2.009C154.806,2.097 155.929,2.424 156.035,2.531C159.858,4.442 162.2,9.582 161.988,13.829C162.129,18.253 160.85,20.235 159.314,23.769C158.893,25.273 161.125,22.425 162.12,20.367Z" style="fill-rule:nonzero;"/>
                </g>
                <g transform="matrix(0.635906,0,0,0.635906,30.1197,67.4873)">
                    <path d="M152.627,8.583C153.627,11.146 154.135,17.792 150.815,21.465C150.674,21.588 150.528,21.615 150.603,21.066C151.346,17.81 151.435,14.599 151.045,11.095C150.691,8.866 149.099,6.919 147.011,6.14C146.268,5.751 145.555,5.61 144.812,5.362C144.635,5.322 144.569,5.114 144.746,4.973C147.011,4.548 151.627,6.021 152.627,8.583Z" style="fill-rule:nonzero;"/>
                </g>
            </g>
            <g transform="matrix(0.490554,0,0,0.490554,36.6103,69.7652)">
                <path d="M85.255,24.048C83.981,27.41 82.685,32.074 83.393,35.967C84.579,43.859 91.054,46.331 93.2,46.663C95.345,46.994 96.774,47.114 96.243,47.622C95.387,48.443 91.306,48.078 89.077,47.193C86.599,45.955 84.228,43.761 82.99,41.283C80.371,36.152 80.158,28.33 84.051,23.73C84.795,23.022 85.432,22.102 86.316,21.642C87.06,21.358 85.573,23.234 85.255,24.048Z" style="fill-rule:nonzero;"/>
            </g>
        </g>
        <g transform="matrix(1.14175,0,0,1.14175,-4.45735,-2.9062)">
            <g transform="matrix(1.32774,0,0,1.32774,-110.944,-1.51506)">
                <path d="M141.101,12.334C142.587,16.156 141.915,21.217 141.172,25.251C140.322,29.321 138.27,32.931 136.642,36.682C135.332,39.301 132.501,39.797 130.307,41.071C128.643,42.274 130.342,44.504 129.493,46.167C128.537,48.538 130.731,51.9 127.617,53.174C126.555,53.493 125.175,52.997 124.397,54.13C122.344,57.811 125.777,61.456 124.75,65.455C123.83,65.773 123.052,65.596 122.096,65.49C121.742,64.358 122.131,63.225 121.955,61.987C121.778,61.597 121.955,60.925 121.459,60.783C120.68,62.128 121.141,63.933 121.247,65.384L121.105,65.561C120.185,65.596 119.732,65.31 118.953,65.062L118.812,64.637C119.024,63.399 119.011,61.01 118.486,60.889C118.097,61.031 118.026,61.562 117.92,61.951C117.495,63.048 117.991,64.322 117.814,65.419C117,65.738 116.15,65.526 115.266,65.49C115.053,64.605 115.655,63.862 115.584,62.907C115.761,61.88 115.903,60.642 115.62,59.615C115.443,59.439 115.23,59.226 115.018,59.332C113.178,61.173 113.85,63.898 113.956,66.34L113.744,66.764C112.611,66.941 111.231,67.047 110.099,66.694L109.993,66.198C110.842,62.553 111.585,58.518 111.019,54.661C110.665,53.918 110.594,52.927 109.745,52.537C108.117,52.006 106.17,51.971 105.392,50.095C104.507,48.467 105.64,46.769 106.064,45.247C105.286,43.548 103.162,44.398 101.817,43.796C99.482,43.336 97.252,42.31 95.907,40.151C94.385,37.709 92.934,35.161 92.899,32.223C92.864,28.967 93.89,26.03 94.987,23.163C96.367,20.686 97.818,18.032 100.296,16.121C102.207,14.563 105.003,13.537 107.374,14.705C109.072,15.661 110.382,17.324 111.337,18.987C112.682,22.208 113.744,25.499 114.629,28.896C114.77,29.109 115.018,29.215 115.23,29.109C115.797,27.906 115.974,26.525 116.469,25.251C117.46,21.642 119.3,18.386 121.141,15.094C123.689,10.777 128.077,7.025 133.102,6.813C136.571,6.813 139.827,9.255 141.101,12.334Z" style="fill-rule:nonzero;"/>
            </g>
            <g transform="matrix(2.08794,0,0,2.08794,-160.085,-142.425)">
                <g transform="matrix(0.635906,0,0,0.635906,23.5359,67.4873)">
                    <path d="M137.491,18.952C137.181,23.42 136.146,29.534 134.058,34.205C132.855,36.081 130.731,36.824 128.891,37.744C127.511,37.744 127.121,36.152 126.06,35.444L126.237,34.276C128.502,30.595 130.307,26.738 131.758,22.703C132.501,20.19 133.386,17.713 133.35,14.917C133.315,14.245 133.35,13.396 132.713,13.042C132.572,13.006 132.43,13.183 132.43,13.325C131.227,20.721 127.015,26.844 122.875,33.002C122.238,33.957 121.141,33.073 120.185,33.108C119.371,32.931 118.238,33.25 118.062,32.152C118.699,26.455 121.034,21.429 123.936,16.616C125.989,13.785 129.758,10.378 132.501,10.6C135.244,10.821 137.801,14.484 137.491,18.952Z" style="fill:white;fill-rule:nonzero;"/>
                </g>
                <g transform="matrix(0.635906,0,0,0.635906,23.5359,67.4873)">
                    <path d="M108.931,22.102C110.063,24.756 110.948,27.446 111.762,30.206C111.727,31.622 112.895,33.037 111.904,34.382C111.019,35.196 109.851,36.01 108.577,35.444C107.834,35.019 107.197,34.63 106.701,33.957C104.118,32.188 104.365,28.755 101.924,26.95C101.711,26.95 101.393,26.632 101.286,26.985C102.773,30.878 103.021,35.408 107.126,37.992C107.692,38.735 106.666,39.372 106.524,40.115C106.135,40.505 105.463,40.434 105.003,40.328C102.879,39.514 100.472,39.372 98.88,37.355C95.801,34.382 95.73,29.25 97.323,25.534C98.278,23.199 99.305,20.757 101.357,18.987C102.348,17.961 103.941,17.749 105.286,18.209C106.843,18.987 108.152,20.58 108.931,22.102Z" style="fill:white;fill-rule:nonzero;"/>
                </g>
                <g transform="matrix(0.635906,0,0,0.635906,23.5359,67.4873)">
                    <path d="M118.38,43.725C118.238,45.495 117.637,47.229 116.115,48.22C114.381,48.857 113.107,47.264 111.904,46.167C111.16,45.459 110.983,44.221 111.408,43.3C111.585,41.602 113.319,40.823 114.593,40.115C115.761,39.974 116.469,41.106 117.389,41.637C117.885,42.274 118.309,42.911 118.38,43.725Z" style="fill:white;fill-rule:nonzero;"/>
                </g>
                <g transform="matrix(0.635906,0,0,0.635906,23.5359,67.4873)">
                    <path d="M124.998,41C126.343,42.699 126.768,44.858 126.98,47.087C126.803,48.007 126.485,48.963 125.635,49.529C124.503,49.777 124.361,48.326 123.512,47.866C122.839,47.476 121.99,47.264 121.601,46.521C121.388,44.645 122.273,42.911 122.875,41.212C123.406,40.363 124.326,40.717 124.998,41Z" style="fill:white;fill-rule:nonzero;"/>
                </g>
                <g transform="matrix(0.635906,0,0,0.635906,23.5359,67.4873)">
                    <path d="M120.822,51.192C120.928,52.113 121.282,53.316 120.362,53.988C119.796,54.448 118.946,54.484 118.238,54.378C117.672,53.634 116.575,53.068 116.929,51.83C117.743,50.485 118.592,49.14 119.69,47.866C119.866,47.795 120.114,47.512 120.291,47.795C120.857,48.786 120.574,50.095 120.822,51.192Z" style="fill:white;fill-rule:nonzero;"/>
                </g>
            </g>
        </g>
    </g>
</svg>
