<svg viewBox="0 0 32 32" xmlns="http://www.w3.org/2000/svg"><path d="M28.16 7.33a3.1 3.1 0 0 0 .1-2.97c-.33-.66-1.12-1.3-1.45-1.27-.33.02-.07.1-.04.12.88.44 1.42 1.63 1.36 2.61.03 1.02-.26 1.48-.62 2.3-.1.34.42-.32.65-.8"/><path d="M29.7 7.33a4.2 4.2 0 0 0 .15-3.99c-.45-.89-1.52-1.74-1.96-1.71-.44.02-.1.13-.06.16 1.19.6 1.91 2.2 1.84 3.51.04 1.38-.36 1.99-.84 3.09-.13.46.57-.42.88-1.06M27.17 4.6c.23.6.34 2.13-.42 2.98-.04.03-.07.03-.05-.1q.25-1.1.1-2.3a1.5 1.5 0 0 0-.92-1.14c-.18-.1-.34-.12-.51-.18q-.07-.03-.02-.1c.53-.09 1.6.25 1.82.85M2.64 13.5c-.3.8-.62 1.91-.45 2.84a3 3 0 0 0 2.33 2.55c.5.08.85.11.72.23-.2.2-1.18.1-1.7-.1a3.3 3.3 0 0 1-1.45-1.41c-.62-1.23-.67-3.09.26-4.18.18-.17.33-.39.54-.5.18-.06-.18.38-.25.58m22.91-7.7c.65 1.7.35 3.96.01 5.76-.38 1.82-1.3 3.43-2.03 5.1-.59 1.17-1.85 1.38-2.83 1.95-.74.54.01 1.53-.37 2.27-.43 1.06.55 2.56-.84 3.13-.48.14-1.1-.08-1.44.42-.92 1.64.6 3.27.14 5.05-.4.14-.75.07-1.18.02-.16-.5.02-1.01-.06-1.57-.08-.17 0-.47-.22-.53-.35.6-.14 1.4-.1 2.05l-.06.08c-.41.01-.61-.11-.96-.23l-.06-.19c.1-.55.09-1.62-.15-1.67-.17.06-.2.3-.25.47-.19.5.03 1.06-.05 1.55-.36.14-.74.05-1.14.03-.1-.4.18-.73.15-1.15.08-.46.14-1.01.02-1.47-.08-.08-.18-.18-.27-.13-.82.82-.53 2.04-.48 3.13l-.1.19c-.5.07-1.12.12-1.62-.04l-.05-.22c.38-1.63.72-3.43.47-5.15-.16-.33-.19-.77-.57-.95-.72-.23-1.6-.25-1.94-1.09-.39-.73.12-1.48.3-2.16-.34-.76-1.29-.38-1.88-.65a3.8 3.8 0 0 1-2.64-1.64c-.67-1.09-1.32-2.23-1.33-3.54a11 11 0 0 1 .94-4.04c.62-1.1 1.27-2.28 2.38-3.13.85-.7 2.1-1.15 3.16-.63a5 5 0 0 1 1.76 1.92q.89 2.14 1.46 4.42.1.16.26.1c.26-.54.34-1.16.56-1.72.45-1.61 1.27-3.06 2.1-4.53 1.14-1.92 3.1-3.6 5.34-3.68 1.55 0 3 1.1 3.57 2.47"/><path fill="#FFF" d="M23.93 8.76c-.14 2-.61 4.72-1.55 6.8-.54.84-1.49 1.17-2.3 1.57-.62 0-.8-.7-1.27-1.02l.08-.53a28 28 0 0 0 2.48-5.15c.33-1.12.73-2.23.71-3.48-.01-.3 0-.68-.28-.83-.06-.02-.12.06-.12.12-.55 3.3-2.43 6.03-4.29 8.77-.28.43-.77.03-1.2.05-.36-.08-.87.06-.94-.43.29-2.54 1.33-4.78 2.63-6.93.92-1.26 2.6-2.78 3.83-2.67 1.22.1 2.36 1.73 2.22 3.73m-12.75 1.37q.73 1.78 1.26 3.62c-.02.63.5 1.27.06 1.87-.4.36-.92.72-1.49.47a3 3 0 0 1-.84-.67c-1.15-.8-1.03-2.32-2.12-3.13-.1 0-.24-.14-.28.02.65 1.73.76 3.75 2.59 4.91.25.33-.2.62-.27.95-.18.17-.48.14-.68.1-.95-.37-2.02-.44-2.73-1.34-1.37-1.33-1.4-3.62-.68-5.28a7 7 0 0 1 1.8-2.91c.45-.46 1.16-.55 1.76-.35.7.35 1.28 1.06 1.62 1.74m4.2 9.67c-.07.78-.34 1.55-1.02 2-.77.28-1.34-.43-1.88-.92-.33-.32-.4-.87-.22-1.28.08-.76.86-1.1 1.43-1.42.52-.07.83.44 1.24.68.23.28.41.57.44.93m2.96-1.21a5 5 0 0 1 .88 2.72c-.08.41-.22.84-.6 1.09-.5.1-.57-.54-.95-.75-.3-.17-.68-.27-.85-.6-.1-.83.3-1.6.57-2.36.24-.38.65-.22.95-.1m-1.87 4.55c.04.4.2.94-.21 1.24-.25.2-.63.22-.95.18-.25-.34-.74-.6-.58-1.14.36-.6.74-1.2 1.24-1.77.07-.03.19-.16.26-.03.26.44.13 1.03.24 1.52"/></svg>