<svg width="100%" height="100%" viewBox="0 0 1024 289" version="1.1" xmlns="http://www.w3.org/2000/svg" xmlns:xlink="http://www.w3.org/1999/xlink" xml:space="preserve" style="fill-rule:evenodd;clip-rule:evenodd;stroke-linejoin:round;stroke-miterlimit:2;">
    <g transform="matrix(33.5826,0,0,33.5826,-734.689,-684.687)">
        <g>
            <path d="M28.525,20.381L26.149,20.381L25.393,24.353L25.057,24.353L24.301,20.381L21.877,20.381L21.877,28.949L23.113,28.949L23.113,21.701L23.449,21.701L24.229,25.709L26.173,25.709L26.953,21.701L27.289,21.701L27.289,28.949L28.525,28.949L28.525,20.381Z" style="fill:#FFFEFC;fill-rule:nonzero;"/>
            <rect x="30.613" y="20.381" width="1.284" height="8.568" style="fill:#FFFEFC;"/>
            <path d="M38.689,21.581L38.689,20.381L33.301,20.381L33.301,21.581L35.353,21.581L35.353,28.949L36.637,28.949L36.637,21.581L38.689,21.581Z" style="fill:#FFFEFC;fill-rule:nonzero;"/>
            <g transform="matrix(0.964745,0,0,0.964745,1.39571,0.882133)">
                <path d="M44.065,22.649L45.349,22.649C45.277,22.277 45.169,21.941 45.037,21.641C44.905,21.341 44.725,21.089 44.509,20.885C44.293,20.681 44.041,20.513 43.741,20.393C43.441,20.285 43.081,20.225 42.685,20.225C42.133,20.225 41.665,20.333 41.269,20.549C40.873,20.765 40.561,21.065 40.309,21.449C40.057,21.845 39.877,22.313 39.769,22.853C39.649,23.405 39.589,24.005 39.589,24.665C39.589,25.325 39.649,25.925 39.769,26.465C39.877,27.005 40.057,27.473 40.309,27.869C40.561,28.265 40.873,28.565 41.269,28.781C41.665,28.997 42.133,29.105 42.685,29.105C43.105,29.105 43.477,29.045 43.801,28.913C44.113,28.781 44.377,28.601 44.605,28.373C44.833,28.145 45.013,27.857 45.145,27.533C45.277,27.209 45.385,26.837 45.457,26.441L44.161,26.441C44.053,26.993 43.873,27.365 43.621,27.569C43.369,27.773 43.033,27.869 42.625,27.869C42.301,27.869 42.037,27.797 41.821,27.653C41.593,27.509 41.413,27.293 41.281,27.017C41.149,26.741 41.053,26.405 40.993,26.009C40.933,25.613 40.897,25.169 40.897,24.665C40.897,24.161 40.933,23.705 40.993,23.309C41.053,22.913 41.149,22.577 41.281,22.301C41.413,22.025 41.593,21.821 41.821,21.677C42.037,21.533 42.301,21.461 42.625,21.461C43.033,21.461 43.345,21.557 43.561,21.737C43.777,21.917 43.945,22.229 44.065,22.649Z" style="fill:#FFFEFC;fill-rule:nonzero;"/>
            </g>
            <path d="M52.369,20.381L51.085,20.381L51.085,23.921L48.265,23.921L48.265,20.381L46.981,20.381L46.981,28.949L48.265,28.949L48.265,25.145L51.085,25.145L51.085,28.949L52.369,28.949L52.369,20.381Z" style="fill:#FFFEFC;fill-rule:nonzero;"/>
        </g>
    </g>
</svg>