<svg width="100%" height="100%" viewBox="0 0 1012 529" version="1.1" xmlns="http://www.w3.org/2000/svg" xmlns:xlink="http://www.w3.org/1999/xlink" xml:space="preserve" xmlns:serif="http://www.serif.com/" style="fill-rule:evenodd;clip-rule:evenodd;stroke-linejoin:round;stroke-miterlimit:2;">
    <g transform="matrix(61.657,0,0,61.657,-1348.87,-1256.91)">
        <g>
            <path d="M27.541,20.381L26.305,20.381L26.305,27.629L25.969,27.629L24.397,20.381L21.877,20.381L21.877,28.949L23.113,28.949L23.113,21.701L23.449,21.701L25.021,28.949L27.541,28.949L27.541,20.381Z" style="fill:#FFFEFC;fill-rule:nonzero;"/>
            <rect x="29.629" y="20.381" width="1.284" height="8.568" style="fill:#FFFEFC;"/>
            <g transform="matrix(0.964907,0,0,0.964907,1.14464,0.870285)">
                <path d="M37.093,22.649L38.377,22.649C38.305,22.277 38.197,21.941 38.065,21.641C37.933,21.341 37.753,21.089 37.537,20.885C37.321,20.681 37.069,20.513 36.769,20.393C36.469,20.285 36.109,20.225 35.713,20.225C35.161,20.225 34.693,20.333 34.297,20.549C33.901,20.765 33.589,21.065 33.337,21.449C33.085,21.845 32.905,22.313 32.797,22.853C32.677,23.405 32.617,24.005 32.617,24.665C32.617,25.325 32.677,25.925 32.797,26.465C32.905,27.005 33.085,27.473 33.337,27.869C33.589,28.265 33.901,28.565 34.297,28.781C34.693,28.997 35.161,29.105 35.713,29.105C36.133,29.105 36.505,29.045 36.829,28.913C37.141,28.781 37.405,28.601 37.633,28.373C37.861,28.145 38.041,27.857 38.173,27.533C38.305,27.209 38.413,26.837 38.485,26.441L37.189,26.441C37.081,26.993 36.901,27.365 36.649,27.569C36.397,27.773 36.061,27.869 35.653,27.869C35.329,27.869 35.065,27.797 34.849,27.653C34.621,27.509 34.441,27.293 34.309,27.017C34.177,26.741 34.081,26.405 34.021,26.009C33.961,25.613 33.925,25.169 33.925,24.665C33.925,24.161 33.961,23.705 34.021,23.309C34.081,22.913 34.177,22.577 34.309,22.301C34.441,22.025 34.621,21.821 34.849,21.677C35.065,21.533 35.329,21.461 35.653,21.461C36.061,21.461 36.373,21.557 36.589,21.737C36.805,21.917 36.973,22.229 37.093,22.649Z" style="fill:#FFFEFC;fill-rule:nonzero;"/>
            </g>
        </g>
    </g>
</svg>