<svg width="24px" height="30px" viewBox="0 0 24 30" version="1.1" xmlns="http://www.w3.org/2000/svg" xmlns:xlink="http://www.w3.org/1999/xlink" xml:space="preserve" xmlns:serif="http://www.serif.com/" style="fill-rule:evenodd;clip-rule:evenodd;stroke-linejoin:round;stroke-miterlimit:2;">
    <g transform="matrix(0.714286,0,0,0.714286,0,0)">
        <g transform="matrix(1.4,0,0,1.4,0,0)">
            <path d="M4.107,13.636L4.107,15L5.471,15L5.471,17.727L6.834,17.727L6.834,1.364L9.562,1.364L9.562,13.636L10.926,13.636L10.926,8.181L13.653,8.182L13.652,9.546L13.652,13.636L15.016,13.636L15.016,9.546L17.743,9.546L17.744,10.909L17.744,14.998L19.107,14.998L19.107,10.909L20.471,10.909L20.471,12.273L21.834,12.273L21.834,21.818L20.471,21.818L20.471,25.909L19.107,25.909L19.107,28.636L8.198,28.636L8.198,25.909L6.834,25.909L6.834,23.181L5.471,23.181L5.471,20.454L4.107,20.454L4.107,17.727L2.744,17.727L2.744,16.364L1.38,16.364L1.38,13.636L4.107,13.636Z" style="fill:#FFFEFC;"/>
        </g>
        <g>
            <rect x="7.659" y="1.909" width="1.909" height="22.909" style="fill:rgb(17,17,17);"/>
            <rect x="9.568" y="0" width="3.818" height="1.909" style="fill:rgb(17,17,17);"/>
            <rect x="13.387" y="1.909" width="1.909" height="17.182" style="fill:rgb(17,17,17);"/>
            <rect x="15.296" y="9.545" width="3.818" height="1.909" style="fill:rgb(17,17,17);"/>
            <rect x="19.113" y="13.364" width="1.909" height="5.727" style="fill:rgb(17,17,17);"/>
            <rect x="19.113" y="11.455" width="5.727" height="1.909" style="fill:rgb(17,17,17);"/>
            <rect x="24.841" y="15.273" width="1.909" height="5.724" style="fill:rgb(17,17,17);"/>
            <rect x="24.841" y="13.364" width="3.818" height="1.909" style="fill:rgb(17,17,17);"/>
            <rect x="28.659" y="15.273" width="1.909" height="1.909" style="fill:rgb(17,17,17);"/>
            <rect x="30.568" y="17.182" width="1.909" height="13.364" style="fill:rgb(17,17,17);"/>
            <rect x="28.659" y="30.545" width="1.909" height="5.727" style="fill:rgb(17,17,17);"/>
            <rect x="26.75" y="36.273" width="1.909" height="5.727" style="fill:rgb(17,17,17);"/>
            <rect x="9.568" y="40.091" width="17.182" height="1.909" style="fill:rgb(17,17,17);"/>
            <rect x="5.75" y="19.091" width="1.909" height="1.909" style="fill:rgb(17,17,17);"/>
            <rect x="0.023" y="17.182" width="5.727" height="1.909" style="fill:rgb(17,17,17);"/>
            <rect x="0.023" y="19.091" width="1.909" height="3.818" style="fill:rgb(17,17,17);"/>
            <rect x="1.932" y="22.909" width="1.909" height="1.909" style="fill:rgb(17,17,17);"/>
            <rect x="3.841" y="24.818" width="1.909" height="3.817" style="fill:rgb(17,17,17);"/>
            <rect x="5.75" y="28.636" width="1.909" height="3.818" style="fill:rgb(17,17,17);"/>
            <rect x="7.659" y="32.454" width="1.909" height="3.818" style="fill:rgb(17,17,17);"/>
            <rect x="9.568" y="36.273" width="1.909" height="3.818" style="fill:rgb(17,17,17);"/>
        </g>
    </g>
</svg>
