<svg width="100%" height="100%" viewBox="0 0 1000 194" version="1.1" xmlns="http://www.w3.org/2000/svg" xmlns:xlink="http://www.w3.org/1999/xlink" xml:space="preserve" style="fill-rule:evenodd;clip-rule:evenodd;stroke-linejoin:round;stroke-miterlimit:2;">
    <g transform="matrix(22.4558,0,0,22.4558,-170.699,-135.226)">
        <path d="M8.886,10.962L10.494,10.962C10.566,10.962 10.638,10.95 10.71,10.938L11.778,14.61L13.134,14.61L11.934,10.566C12.282,10.362 12.546,10.074 12.726,9.726C12.906,9.378 12.99,8.97 12.99,8.502C12.99,7.734 12.762,7.134 12.294,6.69C11.826,6.258 11.142,6.042 10.254,6.042L7.602,6.042L7.602,14.61L8.886,14.61L8.886,10.962ZM10.098,9.762L8.886,9.762L8.886,7.242L10.098,7.242C10.686,7.242 11.106,7.35 11.346,7.566C11.574,7.794 11.694,8.106 11.694,8.502C11.694,8.898 11.574,9.21 11.346,9.426C11.106,9.654 10.686,9.762 10.098,9.762Z" style="fill:rgb(255,254,252);fill-rule:nonzero;"/>
        <rect x="14.838" y="6.042" width="1.284" height="8.568" style="fill:rgb(255,254,252);fill-rule:nonzero;"/>
        <path d="M22.302,8.31L23.586,8.31C23.514,7.938 23.406,7.602 23.274,7.302C23.142,7.002 22.962,6.75 22.746,6.546C22.53,6.342 22.278,6.174 21.978,6.054C21.678,5.946 21.318,5.886 20.922,5.886C20.37,5.886 19.902,5.994 19.506,6.21C19.11,6.426 18.798,6.726 18.546,7.11C18.294,7.506 18.114,7.974 18.006,8.514C17.886,9.066 17.826,9.666 17.826,10.326C17.826,10.986 17.886,11.586 18.006,12.126C18.114,12.666 18.294,13.134 18.546,13.53C18.798,13.926 19.11,14.226 19.506,14.442C19.902,14.658 20.37,14.766 20.922,14.766C21.342,14.766 21.714,14.706 22.038,14.574C22.35,14.442 22.614,14.262 22.842,14.034C23.07,13.806 23.25,13.518 23.382,13.194C23.514,12.87 23.622,12.498 23.694,12.102L22.398,12.102C22.29,12.654 22.11,13.026 21.858,13.23C21.606,13.434 21.27,13.53 20.862,13.53C20.538,13.53 20.274,13.458 20.058,13.314C19.83,13.17 19.65,12.954 19.518,12.678C19.386,12.402 19.29,12.066 19.23,11.67C19.17,11.274 19.134,10.83 19.134,10.326C19.134,9.822 19.17,9.366 19.23,8.97C19.29,8.574 19.386,8.238 19.518,7.962C19.65,7.686 19.83,7.482 20.058,7.338C20.274,7.194 20.538,7.122 20.862,7.122C21.27,7.122 21.582,7.218 21.798,7.398C22.014,7.578 22.182,7.89 22.302,8.31Z" style="fill:rgb(255,254,252);fill-rule:nonzero;"/>
        <path d="M30.606,6.042L29.322,6.042L29.322,9.582L26.502,9.582L26.502,6.042L25.218,6.042L25.218,14.61L26.502,14.61L26.502,10.806L29.322,10.806L29.322,14.61L30.606,14.61L30.606,6.042Z" style="fill:rgb(255,254,252);fill-rule:nonzero;"/>
        <path d="M36.162,12.066L36.642,14.61L37.926,14.61L36.21,6.042L33.714,6.042L32.01,14.61L33.27,14.61L33.738,12.066L36.162,12.066ZM33.966,10.866L34.626,7.362L35.286,7.362L35.934,10.866L33.966,10.866Z" style="fill:rgb(255,254,252);fill-rule:nonzero;"/>
        <path d="M40.614,10.962L42.222,10.962C42.294,10.962 42.366,10.95 42.438,10.938L43.506,14.61L44.862,14.61L43.662,10.566C44.01,10.362 44.274,10.074 44.454,9.726C44.634,9.378 44.718,8.97 44.718,8.502C44.718,7.734 44.49,7.134 44.022,6.69C43.554,6.258 42.87,6.042 41.982,6.042L39.33,6.042L39.33,14.61L40.614,14.61L40.614,10.962ZM41.826,9.762L40.614,9.762L40.614,7.242L41.826,7.242C42.414,7.242 42.834,7.35 43.074,7.566C43.302,7.794 43.422,8.106 43.422,8.502C43.422,8.898 43.302,9.21 43.074,9.426C42.834,9.654 42.414,9.762 41.826,9.762Z" style="fill:rgb(255,254,252);fill-rule:nonzero;"/>
        <path d="M48.786,6.042L46.566,6.042L46.566,14.61L48.786,14.61C49.41,14.61 49.938,14.502 50.37,14.298C50.79,14.094 51.138,13.794 51.402,13.422C51.666,13.05 51.858,12.594 51.966,12.066C52.074,11.55 52.134,10.962 52.134,10.326C52.134,9.69 52.074,9.102 51.966,8.574C51.858,8.046 51.666,7.59 51.402,7.218C51.138,6.846 50.79,6.546 50.37,6.342C49.938,6.138 49.41,6.042 48.786,6.042ZM47.85,13.41L47.85,7.242L48.642,7.242C49.11,7.242 49.494,7.326 49.782,7.482C50.058,7.638 50.286,7.854 50.442,8.13C50.598,8.406 50.694,8.742 50.754,9.114C50.802,9.486 50.826,9.894 50.826,10.326C50.826,10.758 50.802,11.166 50.754,11.538C50.694,11.91 50.598,12.234 50.442,12.51C50.286,12.786 50.058,13.014 49.782,13.17C49.494,13.326 49.11,13.41 48.642,13.41L47.85,13.41Z" style="fill:rgb(255,254,252);fill-rule:nonzero;"/>
    </g>
</svg>
