<svg width="100%" height="100%" viewBox="0 0 1024 326" version="1.1" xmlns="http://www.w3.org/2000/svg" xmlns:xlink="http://www.w3.org/1999/xlink" xml:space="preserve" style="fill-rule:evenodd;clip-rule:evenodd;stroke-linejoin:round;stroke-miterlimit:2;">
    <g transform="matrix(19.0221,0,0,19.0221,-1721.02,-2828.66)">
        <g>
            <path d="M93.043,158.544L96.259,158.544C96.403,158.544 96.547,158.52 96.691,158.496L98.827,165.84L101.539,165.84L99.139,157.752C99.835,157.344 100.363,156.768 100.723,156.072C101.083,155.376 101.251,154.56 101.251,153.624C101.251,152.088 100.795,150.888 99.859,150C98.923,149.136 97.555,148.704 95.779,148.704L90.475,148.704L90.475,165.84L93.043,165.84L93.043,158.544ZM95.467,156.144L93.043,156.144L93.043,151.104L95.467,151.104C96.643,151.104 97.483,151.32 97.963,151.752C98.419,152.208 98.659,152.832 98.659,153.624C98.659,154.416 98.419,155.04 97.963,155.472C97.483,155.928 96.643,156.144 95.467,156.144Z" style="fill:#FFFEFC;fill-rule:nonzero;"/>
            <g transform="matrix(0.982231,0,0,0.982231,1.86185,2.64237)">
                <path d="M115.819,148.704L113.251,148.704L113.251,159.888C113.251,161.112 113.035,162.048 112.579,162.696C112.123,163.344 111.379,163.68 110.299,163.68C109.219,163.68 108.475,163.344 108.019,162.696C107.563,162.048 107.347,161.112 107.347,159.888L107.347,148.704L104.779,148.704L104.779,159.888C104.779,161.976 105.211,163.536 106.099,164.568C106.987,165.624 108.379,166.152 110.299,166.152C112.219,166.152 113.611,165.624 114.499,164.568C115.387,163.536 115.819,161.976 115.819,159.888L115.819,148.704Z" style="fill:#FFFEFC;fill-rule:nonzero;"/>
            </g>
            <path d="M124.267,148.704L119.827,148.704L119.827,165.84L124.267,165.84C125.515,165.84 126.571,165.624 127.435,165.216C128.275,164.808 128.971,164.208 129.499,163.464C130.027,162.72 130.411,161.808 130.627,160.752C130.843,159.72 130.963,158.544 130.963,157.272C130.963,156 130.843,154.824 130.627,153.768C130.411,152.712 130.027,151.8 129.499,151.056C128.971,150.312 128.275,149.712 127.435,149.304C126.571,148.896 125.515,148.704 124.267,148.704ZM122.395,163.44L122.395,151.104L123.979,151.104C124.915,151.104 125.683,151.272 126.259,151.584C126.811,151.896 127.267,152.328 127.579,152.88C127.891,153.432 128.083,154.104 128.203,154.848C128.299,155.592 128.347,156.408 128.347,157.272C128.347,158.136 128.299,158.952 128.203,159.696C128.083,160.44 127.891,161.088 127.579,161.64C127.267,162.192 126.811,162.648 126.259,162.96C125.683,163.272 124.915,163.44 123.979,163.44L122.395,163.44Z" style="fill:#FFFEFC;fill-rule:nonzero;"/>
            <path d="M138.859,155.088L137.755,155.088L134.971,148.704L132.283,148.704L137.011,159.456L137.011,165.84L139.579,165.84L139.579,159.456L144.307,148.704L141.667,148.704L138.859,155.088Z" style="fill:#FFFEFC;fill-rule:nonzero;"/>
        </g>
    </g>
</svg>